<svg width="956" height="273" viewBox="0 0 956 273" fill="none" xmlns="http://www.w3.org/2000/svg">
<path fill-rule="evenodd" clip-rule="evenodd" d="M308.946 177.23C308.946 184.701 310.066 189.022 315.946 189.022C318.337 189.073 320.691 188.422 322.717 187.152L324.027 186.431V204.654L323.477 204.884C319.728 206.454 315.71 207.283 311.646 207.324C300.685 207.324 292.764 201.283 289.763 190.672C280.862 201.433 269.481 207.324 257.56 207.324C236.517 207.324 222.386 192.242 222.386 169.78C222.386 144.217 239.378 134.335 265.3 122.214L288.173 111.363V104.362C288.173 89.3603 281.312 80.3592 269.841 80.3592C264.367 80.2998 259.107 82.4867 255.289 86.4099C250.519 91.2805 247.838 98.5013 247.948 106.282V107.192H228.706V106.292C228.906 84.4197 241.938 62.4172 270.611 62.4172C294.614 62.4172 308.946 77.5589 308.946 102.932V177.23ZM288.113 173.02V129.695L271.131 137.616C258.13 143.657 243.128 152.778 243.128 169.9C243.128 182.181 250.379 189.812 262.05 189.812C272.921 189.812 282.933 181.411 288.113 173.02Z" fill="black"/>
<path fill-rule="evenodd" clip-rule="evenodd" d="M422.839 21.0024H402.596L401.856 65.2275H383.324V84.0997H401.836V175.45C401.836 195.953 411.447 207.244 428.839 207.244C435.7 207.244 442.451 205.334 449.492 201.383L449.942 201.133V182.131L448.492 183.321C444.051 187.022 438.85 189.022 434.05 189.022C424.789 189.022 422.849 181.321 422.849 174.85V84.0997H452.652V65.1875H422.839V21.0024Z" fill="black"/>
<path fill-rule="evenodd" clip-rule="evenodd" d="M179.381 171.8C171.46 183.291 162.379 189.612 153.718 189.612C142.396 189.612 138.366 178.511 138.366 168.119V65.1875H117.564V169.109C117.564 193.342 128.505 207.244 147.567 207.244C163.259 207.244 173.57 198.633 179.781 190.592L180.141 204.674H200.143V65.1875H179.341L179.381 171.8Z" fill="black"/>
<path fill-rule="evenodd" clip-rule="evenodd" d="M44.7551 62.6072C56.9065 62.6072 66.6077 68.1178 71.8583 77.8589L72.4183 65.2075H90.4204V272.231H69.418V194.432C63.1173 202.733 53.2061 207.434 41.7748 207.434C21.5825 207.434 0 188.412 0 135.016C0 110.623 4.86056 91.7405 14.4517 78.8891C22.2926 68.3978 33.0538 62.6072 44.7551 62.6072ZM69.418 173.44V97.1312C66.0076 87.14 57.7667 80.6893 48.3156 80.6893C31.2236 80.6893 21.4225 100.422 21.4225 134.825C21.4225 170.63 30.1335 188.782 47.3255 188.782C56.6066 188.782 63.6374 183.901 69.418 173.44Z" fill="black"/>
<rect x="340.839" width="20.8024" height="204.674" fill="black"/>
<rect x="551.743" y="65.1875" width="20.8024" height="139.486" fill="black"/>
<rect x="551.933" y="20.7824" width="20.6024" height="24.1528" fill="black"/>
<path fill-rule="evenodd" clip-rule="evenodd" d="M494.197 81.4794L493.147 65.1875H473.394V204.874H494.197V104.322C503.628 85.1898 515.809 82.5395 527.511 82.5395L532.431 82.9395V62.6072H526.791C511.979 62.6072 503.848 67.2377 494.197 81.4794Z" fill="black"/>
<path fill-rule="evenodd" clip-rule="evenodd" d="M742.715 121.814L742.185 122.544L742.605 121.754C729.544 115.013 720.303 109.333 720.303 97.5812C720.303 87.4001 727.504 80.5793 738.235 80.5793C743.976 80.5793 748.806 82.5795 752.237 86.3499C756.417 90.9605 758.357 98.1413 757.567 106.032L757.467 107.032H776.739V106.182C777.369 93.1007 773.579 81.5694 766.078 73.6985C759.187 66.4677 749.616 62.6472 738.405 62.6472C715.942 62.6472 700.261 77.5189 700.261 98.8114C700.261 122.004 718.853 131.955 732.424 139.216C745.996 146.477 758.707 153.488 758.707 167.959C758.707 180.161 749.836 188.962 737.605 188.962C724.293 188.962 714.712 177.77 714.322 161.749V160.879H694.91V161.789C695.54 189.942 711.912 207.434 737.605 207.434C762.198 207.434 778.72 191.152 778.72 166.919C778.74 140.886 759.597 130.755 742.715 121.814Z" fill="black"/>
<path fill-rule="evenodd" clip-rule="evenodd" d="M661.536 160.888C661.116 170.82 658.406 179.021 653.805 183.821C650.611 187.226 646.122 189.116 641.454 189.022C625.452 189.022 616.981 170.37 616.981 135.076C616.981 99.9515 625.742 80.6093 641.644 80.6093C645.991 80.5115 650.177 82.2507 653.175 85.3998C657.476 89.8503 660.066 97.4012 660.526 106.682H680.218C679.988 92.0706 676.058 80.3692 668.667 72.6783C662.156 65.8976 653.335 62.4672 642.444 62.4672C612.61 62.4672 596.179 88.1801 596.179 134.876C596.179 181.571 612.07 207.244 641.074 207.244C664.376 207.244 678.958 190.032 680.788 160.888H661.536Z" fill="black"/>
<path fill-rule="evenodd" clip-rule="evenodd" d="M808.863 190.802C808.881 191.735 808.66 192.658 808.223 193.482C807.781 194.291 807.064 194.915 806.203 195.242L809.373 201.023H805.233L802.722 195.713H799.912V201.023H796.232V186.091H803.643C805.052 185.992 806.445 186.44 807.533 187.342C808.451 188.252 808.935 189.511 808.863 190.802ZM802.532 192.691C803.22 192.73 803.908 192.596 804.532 192.301C805.02 192.013 805.294 191.465 805.232 190.901C805.288 190.3 805.022 189.714 804.532 189.361C803.922 189.022 803.228 188.862 802.532 188.901H799.932V192.691H802.532Z" fill="black"/>
<path fill-rule="evenodd" clip-rule="evenodd" d="M811.723 183.941C812.936 185.126 813.895 186.545 814.544 188.112C815.904 191.587 815.904 195.448 814.544 198.923C813.898 200.509 812.939 201.948 811.723 203.153C810.518 204.342 809.081 205.271 807.503 205.884C804.129 207.177 800.396 207.177 797.022 205.884C795.443 205.271 794.007 204.342 792.801 203.153C791.585 201.95 790.629 200.51 789.991 198.923C788.631 195.448 788.631 191.587 789.991 188.112C790.632 186.544 791.589 185.124 792.801 183.941C794.019 182.772 795.452 181.852 797.022 181.231C800.396 179.938 804.129 179.938 807.503 181.231C809.072 181.852 810.506 182.772 811.723 183.941ZM809.753 201.283C810.706 200.302 811.463 199.148 811.983 197.882C812.546 196.495 812.825 195.009 812.803 193.512C812.823 192.031 812.544 190.562 811.983 189.191C811.466 187.922 810.708 186.764 809.753 185.781C808.809 184.828 807.678 184.079 806.432 183.581C803.802 182.554 800.882 182.554 798.251 183.581C797.001 184.076 795.867 184.825 794.921 185.781C793.965 186.762 793.211 187.921 792.701 189.191C792.139 190.562 791.861 192.031 791.881 193.512C791.859 195.009 792.138 196.495 792.701 197.882C793.214 199.149 793.968 200.304 794.921 201.283C795.862 202.245 796.997 202.995 798.251 203.483C800.882 204.51 803.802 204.51 806.432 203.483C807.682 202.993 808.814 202.243 809.753 201.283Z" fill="black"/>
<path fill-rule="evenodd" clip-rule="evenodd" d="M912.215 83.7297L930.217 20.0523H956V106.732H937.608V47.6755H937.378C936.846 51.0456 936.132 54.3842 935.238 57.6767C934.418 60.647 933.537 63.7373 932.587 66.9277L919.586 106.682H902.744L889.892 66.9277C889.432 65.2975 888.992 63.7574 888.552 62.4172C888.112 61.077 887.702 59.6069 887.322 58.0767C886.942 56.5365 886.552 54.8697 886.152 53.0761C885.752 51.2826 885.322 49.1323 884.862 46.6254H884.642V106.632H851.878L833.496 76.3588L815.744 106.582H795.742L823.445 60.837L798.202 20.0023H819.894L835.376 46.0053L849.998 20.0523H892.683L911.985 83.7297H912.215ZM867.56 23.5027L844.967 61.007L867.56 97.7613V23.5027Z" fill="url(#paint0_linear_5:30)"/>
<defs>
<linearGradient id="paint0_linear_5:30" x1="729.556" y1="56.1837" x2="780.923" y2="183.02" gradientUnits="userSpaceOnUse">
<stop offset="0.04" stop-color="#21DBAA"/>
<stop offset="0.36" stop-color="#00B4EF"/>
<stop offset="0.43" stop-color="#01A8EC"/>
<stop offset="0.57" stop-color="#0487E4"/>
<stop offset="0.68" stop-color="#0768DD"/>
<stop offset="0.96" stop-color="#5F1AE5"/>
</linearGradient>
</defs>
</svg>
